<?xml version="1.0" standalone="no"?>
<!DOCTYPE svg PUBLIC "-//W3C//DTD SVG 1.1//EN" "http://www.w3.org/Graphics/SVG/1.1/DTD/svg11.dtd" >
<!--
2013-9-30: Created.
-->
<svg>
<metadata>
Created by iconfont
</metadata>
<defs>

<font id="iconfont" horiz-adv-x="1024" >
  <font-face
    font-family="iconfont"
    font-weight="500"
    font-stretch="normal"
    units-per-em="1024"
    ascent="896"
    descent="-128"
  />
    <missing-glyph />
    
    <glyph glyph-name="x" unicode="x" horiz-adv-x="1001"
d="M281 543q-27 -1 -53 -1h-83q-18 0 -36.5 -6t-32.5 -18.5t-23 -32t-9 -45.5v-76h912v41q0 16 -0.5 30t-0.5 18q0 13 -5 29t-17 29.5t-31.5 22.5t-49.5 9h-133v-97h-438v97zM955 310v-52q0 -23 0.5 -52t0.5 -58t-10.5 -47.5t-26 -30t-33 -16t-31.5 -4.5q-14 -1 -29.5 -0.5
t-29.5 0.5h-32l-45 128h-439l-44 -128h-29h-34q-20 0 -45 1q-25 0 -41 9.5t-25.5 23t-13.5 29.5t-4 30v167h911zM163 247q-12 0 -21 -8.5t-9 -21.5t9 -21.5t21 -8.5q13 0 22 8.5t9 21.5t-9 21.5t-22 8.5zM316 123q-8 -26 -14 -48q-5 -19 -10.5 -37t-7.5 -25t-3 -15t1 -14.5
t9.5 -10.5t21.5 -4h37h67h81h80h64h36q23 0 34 12t2 38q-5 13 -9.5 30.5t-9.5 34.5q-5 19 -11 39h-368zM336 498v228q0 11 2.5 23t10 21.5t20.5 15.5t34 6h188q31 0 51.5 -14.5t20.5 -52.5v-227h-327z" />
    

    
    <glyph glyph-name="slack" unicode="&#59272;" d="M904.516096 452.534272q35.426304 0 59.139072-23.141376t23.712768-57.996288q0-55.425024-53.139456-74.28096l-98.279424-33.712128 31.997952-95.422464q3.999744-11.999232 3.999744-26.855424 0-33.712128-23.998464-58.281984t-57.710592-24.569856q-26.855424 0-48.854016 15.427584t-30.569472 41.140224l-31.42656 94.27968-177.13152-60.567552 31.42656-93.708288q4.571136-13.713408 4.571136-26.855424 0-33.712128-23.998464-58.281984t-58.281984-24.569856q-26.855424 0-48.56832 15.427584t-30.283776 41.140224l-31.42656 93.136896-87.422976-30.283776q-16.570368-5.142528-28.5696-5.142528-34.854912 0-57.996288 22.85568t-23.141376 57.710592q0 26.855424 15.71328 48.56832t40.854528 30.283776l89.137152 30.283776-59.99616 178.845696-89.137152-30.855168q-14.856192-4.571136-27.426816-4.571136-34.28352 0-57.710592 23.141376t-23.427072 57.424896q0 26.855424 15.71328 48.56832t40.854528 30.283776l89.708544 30.283776-30.283776 90.851328q-4.571136 13.713408-4.571136 26.855424 0 34.28352 23.998464 58.56768t58.281984 24.28416q26.855424 0 48.56832-15.427584t30.283776-41.140224l30.855168-91.42272 177.13152 59.99616-30.855168 91.42272q-4.571136 13.713408-4.571136 26.855424 0 33.712128 24.28416 58.281984t57.996288 24.569856q26.855424 0 48.854016-15.71328t30.569472-40.854528l30.283776-91.994112 92.565504 31.42656q11.999232 3.428352 24.569856 3.428352 34.28352 0 58.56768-22.569984t24.28416-56.282112q0-25.71264-17.14176-46.568448t-42.283008-29.426688l-89.708544-30.855168 59.99616-180.559872 93.708288 31.997952q13.713408 4.571136 26.284032 4.571136zm-453.685248-149.704704l177.13152 59.99616-59.99616 179.98848-177.13152-61.138944z"  horiz-adv-x="1024" />

    
    <glyph glyph-name="biaoqing" unicode="&#59287;" d="M506.97500029 127.42500028999996c0.88125029 0 1.81874971 0.03750029 2.7375003 0.03750029 149.64374971 1.76249971 209.64375 132.59999971 210.2249997 133.89374971L302.91875 261.56249971C305.41249971 256.03125 366.16249971 127.42500028999996 506.97500029 127.42500028999996zM349.23124971 413.43749971c23.75624971 0 42.88124971 19.21875029 42.88124971 42.90000029s-19.14374971 42.88124971-42.88124971 42.88124971c-23.66250029 0.03750029-42.84375029-19.18125-42.8437503-42.88124971C306.38750029 432.67499971 325.53125 413.43749971 349.23124971 413.43749971zM675.25624971 456.31875029m-42.9000003 0a2.0109375 2.0109375 0 1 1 85.79999971 0 2.0109375 2.0109375 0 1 1-85.79999971 0ZM512 834C263.88125 834 62 632.11875 62 384c0-248.13749971 201.88125-450 450-450 248.13749971 0 450 201.86250029 450 450C962 632.11875 760.13749971 834 512 834zM512-28.293750290000048C284.65624971-28.293750290000048 99.6875 156.65624971 99.6875 384S284.65624971 796.3125 512 796.3125 924.27499971 611.34375029 924.27499971 384 739.34375029-28.293750290000048 512-28.293750290000048z"  horiz-adv-x="1024" />

    
    <glyph glyph-name="lock-circle" unicode="&#58922;" d="M512 896C229.216 896 0 666.784 0 384c0-282.768 229.216-512 512-512 282.752 0 512 229.232 512 512C1024 666.784 794.752 896 512 896zM512-96C246.896-96 32 118.91200000000003 32 384 32 649.104 246.896 864 512 864c265.056 0 480-214.896 480-480C992 118.91200000000003 777.056-96 512-96zM676.384 435.136l0 106.864c0 72.032-71.808 155.76-164.384 155.76s-164.384-83.728-164.384-155.76l0-106.864C301.168 403.824 272 354.86400000000003 272 286c0-132.544 107.472-192 240-192s240 59.456 240 192C752 354.86400000000003 722.848 403.824 676.384 435.136zM379.616 542c0 56.048 59.056 123.76 132.384 123.76 73.328 0 132.384-67.696 132.384-123.76l0-89.072c-37.952 16.912-83.44 25.072-132.384 25.072s-94.432-8.176-132.384-25.072L379.616 542zM512 126c-114.864 0-208 49.552-208 160 0 110.464 93.136 160 208 160s208-49.536 208-160C720 175.55200000000002 626.864 126 512 126zM514 388.336c-35.296 0-64-28.704-64-64 0-29.728 20.48-54.576 48-61.728l0-12.592c0-8.832 7.168-16 16-16 8.848 0 16 7.168 16 16l0 12.592c27.536 7.152 48 32 48 61.728C578 359.63199999999995 549.296 388.336 514 388.336zM514 292.336c-17.648 0-32 14.352-32 32s14.352 32 32 32c17.648 0 32-14.352 32-32S531.648 292.336 514 292.336z"  horiz-adv-x="1024" />

    
    <glyph glyph-name="down-double" unicode="&#58912;" d="M510.919389 94.75534000000005c-4.403287 0-8.809643 1.282203-12.622482 3.846608L73.471338 384.076748c-10.370185 6.971785-13.130042 21.032012-6.158257 31.406291 6.971785 10.375302 21.032012 13.135158 31.406291 6.163373l412.200016-276.993638 412.19797 276.993638c10.370185 6.971785 24.429389 4.217045 31.406291-6.163373 6.971785-10.374278 4.211928-24.434505-6.161327-31.406291L523.535731 98.601948C519.722892 96.036519 515.320629 94.75534000000005 510.919389 94.75534000000005L510.919389 94.75534000000005zM510.919389 348.59462900000005c-4.403287 0-8.809643 1.283226-12.622482 3.846608L73.471338 637.918084c-10.370185 6.971785-13.130042 21.030989-6.158257 31.406291 6.971785 10.379395 21.032012 13.133112 31.406291 6.161327l412.200016-276.992615 412.19797 276.992615c10.370185 6.976902 24.429389 4.211928 31.406291-6.161327 6.971785-10.375302 4.211928-24.434505-6.161327-31.406291L523.535731 352.441237C519.722892 349.87785499999995 515.320629 348.59462900000005 510.919389 348.59462900000005L510.919389 348.59462900000005zM510.919389 348.59462900000005"  horiz-adv-x="1024" />

    
    <glyph glyph-name="top-double" unicode="&#58913;" d="M511.061628 680.349475c-4.399193 0-8.80248-1.281179-12.612249-3.843538L73.975828 391.266497c-10.361999-6.965645-13.118785-21.014616-6.15314-31.380708 6.960529-10.366092 21.014616-13.123902 31.380708-6.158257l411.859255 276.764418 411.857209-276.764418c10.361999-6.965645 24.408923-4.213975 31.380708 6.158257 6.965645 10.365068 4.208858 24.414039-6.15621 31.380708L523.672854 676.505937C519.858992 679.069319 515.460822 680.349475 511.061628 680.349475L511.061628 680.349475zM511.061628 426.719964c-4.399193 0-8.80248-1.282203-12.612249-3.843538L73.975828 137.63494000000003c-10.361999-6.965645-13.118785-21.013593-6.15314-31.380708 6.960529-10.365068 21.014616-13.122879 31.380708-6.15621l411.859255 276.763394 411.857209-276.763394c10.361999-6.970762 24.408923-4.208858 31.380708 6.15621 6.965645 10.366092 4.208858 24.414039-6.15621 31.380708L523.672854 422.876426C519.858992 425.437761 515.460822 426.719964 511.061628 426.719964L511.061628 426.719964zM511.061628 426.719964"  horiz-adv-x="1024" />

    
    <glyph glyph-name="history" unicode="&#58890;" d="M877.216 404.192M703.84 416.064l-191.872 0L511.968 671.904C511.968 689.632 497.728 704 480 704c-17.76 0-32-14.4-32-32.096l0-287.808c0-17.76 14.272-32 32-32l223.872 0c17.76 0 32.096 14.24 32.096 32C735.968 401.824 721.6 416.064 703.84 416.064L703.84 416.064zM1028.128 61.632M224 576 128 576 128 672c0 17.664-14.336 32-32 32S64 689.664 64 672l0-128c0-17.664 14.336-32 32-32l128 0c17.664 0 32 14.336 32 32C256 561.664 241.664 576 224 576zM139.008 292.512C136 312 123.264 322.656 105.6 322.656c-17.664 0-30.112-13.984-30.112-31.68 0-5.536 1.984-9.984 2.336-15.328C126.336 80.704 302.016-64 512-64c247.424 0 448 200.576 448 448S759.424 832 512 832C321.024 832 158.4 712.288 93.952 544l69.312 0C223.968 676.096 357.088 768 512 768c212.064 0 384-171.936 384-384s-171.936-384-384-384c-178.88 0-328.736 122.464-371.424 288"  horiz-adv-x="1029" />

    
    <glyph glyph-name="power-off" unicode="&#58891;" d="M383.284965 684.396651C247.673357 632.901837 151.288147 501.707842 151.288147 348.03078700000003c0-198.634989 161.033603-359.688036 359.688036-359.688036s359.688036 161.053046 359.688036 359.688036c0 153.676032-96.385211 284.870026-231.988632 336.365864-0.596588-0.034792-1.194198-0.034792-1.809205-0.034792-15.893992 0-28.785603 12.854772-28.785603 28.767184 0 15.877619 12.891611 28.768207 28.785603 28.768207l0 0.280386c0.298805-0.106424 0.615007-0.210801 0.896416-0.280386 6.040576-0.210801 11.590989-2.248204 16.122189-5.550413 158.031223-58.20361 270.732028-210.087832 270.732028-388.31605 0-228.423433-185.201026-413.641855-413.641855-413.641855-228.449016 0-413.641855 185.218422-413.641855 413.641855 0 178.228217 112.711038 330.11244 270.732028 388.31605 4.54041 3.302209 10.089799 5.339612 16.114003 5.550413 0.297782 0.069585 0.605797 0.174985 0.904603 0.280386l0-0.280386c15.893992 0 28.776394-12.891611 28.776394-28.768207 0-15.912411-12.882402-28.767184-28.776394-28.767184C384.479163 684.361859 383.882576 684.361859 383.284965 684.396651zM475.006969 797.57227c0 19.916609 15.9646 36.038798 35.96819 36.038798 19.863397 0 35.96819-16.122189 35.96819-36.038798l0-359.51305c0-19.914562-15.9646-36.07359-35.96819-36.07359-19.863397 0-35.96819 16.159028-35.96819 36.07359L475.006969 797.57227z"  horiz-adv-x="1024" />

    
    <glyph glyph-name="refresh" unicode="&#58929;" d="M698.879266 118.02700000000004c-56.825-40.33-123.34-60.55-191.357-59.625-8.99 0.095-17.93 0.575-26.767 1.35-3.597 0.345-7.19 0.95-10.84 1.395-6.94 0.945-13.88 1.895-20.622 3.22-4.195 0.805-8.292 1.875-12.385 2.845-6.642 1.575-13.232 3.175-19.727 5.125-3.095 0.97-6.14 2.095-9.237 3.145-7.44 2.52-14.882 5.135-22.122 8.21-1.647 0.675-3.245 1.445-4.845 2.2-8.487 3.77-16.827 7.71-24.92 12.16-0.397 0.195-0.698 0.37-1.098 0.57-27.367 15.21-52.385 34.205-74.357 56.405-0.348 0.355-0.7 0.75-1.048 1.15-6.842 6.915-13.332 14.18-19.525 21.725-1.298 1.62-2.547 3.34-3.845 4.985-44.697 56.61-71.662 128.245-71.662 206.162l75.805 0c1.95 0 3.845 1.047 4.848 2.895 0.997 1.827 0.85 3.997-0.253 5.62l-127.39 193.477c-0.997 1.5-2.688 2.5-4.61 2.5-1.895 0-3.592-1-4.59-2.5L0.936266 397.591c-1.075-1.647-1.25-3.795-0.25-5.645 0.997-1.845 2.897-2.895 4.845-2.895l75.807 0c0-91.605 28.212-176.525 76.117-246.734 0.6-0.97 0.997-2.02 1.648-2.995 4.992-7.195 10.485-13.805 15.83-20.6 1.947-2.57 3.845-5.21 5.892-7.74 7.84-9.635 16.18-18.675 24.72-27.54 0.847-0.87 1.597-1.745 2.395-2.52 28.767-29.16 61.277-53.73 96.682-73.35 0.9-0.585 1.797-1.13 2.795-1.655 10.188-5.545 20.675-10.56 31.312-15.3 2.645-1.15 5.192-2.425 7.887-3.57 9.09-3.8 18.427-7.145 27.817-10.335 4.443-1.53 8.84-3.08 13.335-4.475 8.237-2.475 16.63-4.515 25.065-6.57 5.645-1.325 11.19-2.745 16.932-3.845 2.342-0.495 4.59-1.22 6.937-1.595 7.992-1.43 15.982-2.225 23.972-3.22 2.895-0.325 5.742-0.82 8.587-1.15 14.385-1.42 28.665-2.375 42.947-2.375 87.447 0 172.737 27.075 245.902 78.98 23.32 16.58 29.01 49.105 12.675 72.755C754.419266 128.88699999999994 722.199266 134.60699999999997 698.879266 118.02700000000004M941.484266 389.049c-0.045 91.335-28.065 176.075-75.755 246.137-0.705 1.2-1.195 2.422-1.95 3.52-5.945 8.565-12.39 16.555-18.825 24.57-0.75 0.975-1.45 1.997-2.245 2.945-43.65 53.605-98.435 95.027-160.555 122.095-1.7 0.75-3.4 1.597-5.1 2.347-9.935 4.117-20.065 7.762-30.255 11.235-3.695 1.223-7.345 2.572-11.09 3.695-8.885 2.722-17.92 4.942-27.015 7.065-5.04 1.175-10.04 2.472-15.125 3.472-2.555 0.5-4.895 1.247-7.395 1.695-6.79 1.202-13.635 1.728-20.425 2.6-4.7 0.597-9.345 1.347-14.09 1.847-11.43 1.072-22.77 1.522-34.105 1.722-2.045 0-4.095 0.325-6.142 0.325-0.348 0-0.7-0.1-1.095-0.125-87.292-0.075-172.437-26.765-245.499-78.6-23.37-16.527-29.062-49.11-12.73-72.755 16.327-23.645 48.587-29.39 71.91-12.81 56.43 40.025 122.297 60.275 189.812 59.672 9.74-0.072 19.28-0.548 28.715-1.445 2.95-0.348 5.795-0.775 8.69-1.15 7.795-0.95 15.485-2.072 23.07-3.595 3.35-0.647 6.69-1.525 9.935-2.272 7.445-1.695 14.895-3.52 22.185-5.742 2.29-0.747 4.54-1.572 6.83-2.345 8.34-2.75 16.485-5.717 24.52-9.09 0.81-0.348 1.655-0.772 2.45-1.097 48.09-20.95 90.29-53.207 123.205-93.53 0.19-0.253 0.395-0.575 0.59-0.8 46.345-57.102 74.26-130.107 74.26-209.579l-75.81 0c-1.94 0-3.845-1.048-4.84-2.895-1-1.845-0.855-3.997 0.255-5.645l127.43-193.454c0.96-1.495 2.66-2.465 4.6-2.465 1.895 0 3.595 0.97 4.595 2.465l127.345 193.454c1.095 1.648 1.245 3.8 0.25 5.645-1.005 1.847-2.895 2.895-4.85 2.895l-75.75 0L941.485266 389.049z"  horiz-adv-x="1025" />

    
    <glyph glyph-name="video" unicode="&#58963;" d="M642.59576914-66L151.87577451-66C102.32998437-66 62-25.64112597999997 62 23.96244346000003L62 391.93021552c0 49.60356943 40.32998438 89.9913331 89.87577451 89.99133312l490.69110498-1e-8c49.54579013 0 89.84688487-40.35887402 89.84688486-89.9913331l0-28.16743184c168.34012734 114.83645273 174.3491795 116.07870849 179.69376973 117.17651602 9.07135752 2.16672539 22.62061406 0.5489042 34.37871152-5.86460391 8.00243965-3.72676816 17.68047979-12.65367744 23.19840792-21.95615215 0.17333789-0.28889648 0.31778613-0.57779385 0.49112401-0.83780068 7.33797685-13.4625876 7.33797685-13.4625876 7.33797687-243.56883779 0-228.86399356-0.20222753-229.32622881-5.40236866-241.517671-9.24469541-20.65611621-28.54299727-33.13645576-50.58581836-33.13645576-17.16046612 0-17.16046612 0-184.89391084 114.69200361l-4.21789219 2.88896748 0-27.64741728C732.44265401-25.64112597999997 692.14155928-66 642.59576914-66zM151.87577451 424.11331201C134.48419122 424.11331201 119.77934698 409.37957812 119.77934698 391.93021552l-1e-8-367.96777206c0-17.4493626 14.70484424-32.18309648 32.09642754-32.18309648l490.69110498 0c17.3915833 0 32.06753789 14.73373388 32.06753789 32.18309648L674.63441738 106.55802041000004c0 10.74695888 5.95127286 20.56944727 15.4559751 25.56736084 9.4758126 4.99791357 21.00279287 4.27567148 29.81414268-1.79115997l49.37245224-33.97425644c82.45112872-56.36375332 130.09020029-88.86463594 149.33072286-100.6805127 0.98224893 23.60286299 1.09780752 89.64465732 1.09780751 213.00356339 0 130.35020713 0 189.31403057-0.86669033 210.63460957-31.69197158-20.54055762-117.06095742-78.0310081-199.02096123-134.1347546-8.84024033-6.06683145-20.33833008-6.70240459-29.78525303-1.73338066-9.4758126 4.99791357-15.3981958 14.84929248-15.3981958 25.56736084l0 82.91336309c0 17.4493626-14.70484424 32.21198613-32.06753789 32.21198613L151.87577451 424.14220166zM205.29278106 525.22716943c-63.73061982 0-115.55869394 51.82807412-115.55869395 115.55869395s51.82807412 115.55869394 115.55869395 115.55869394 115.55869394-51.82807412 115.55869394-115.55869394S269.02340088 525.22716943 205.29278106 525.22716943zM205.29278106 698.56521036c-31.86531036 0-57.77934698-25.9140375-57.77934698-57.77934698s25.9140375-57.77934698 57.77934697-57.77934697 57.77934698 25.9140375 57.77934698 57.77934697S237.12920088 698.56521036 205.29278106 698.56521036zM560.08686201 525.22716943c-85.10897813 0-154.38641573 69.24854707-154.38641573 154.38641573S474.977883 834 560.08686201 834s154.38641573-69.24854707 154.38641572-154.38641573S645.22472979 525.22716943 560.08686201 525.22716943zM560.08686201 776.22065302c-53.2725583 0-96.60706875-43.33451045-96.60706875-96.60706874s43.33451045-96.60706875 96.60706875-96.60706875 96.60706875 43.33451045 96.60706875 96.60706875S613.35941943 776.22065302 560.08686201 776.22065302z"  horiz-adv-x="1042" />

    
    <glyph glyph-name="app" unicode="&#59120;" d="M511.998 830.172c-246.41 0-446.17-199.761-446.17-446.17 0-246.414 199.76-446.174 446.17-446.174 246.414 0 446.174 199.76 446.174 446.174C958.172 630.411 758.412 830.172 511.998 830.172L511.998 830.172zM513.533-24.019c-224.493 0-406.483 181.99-406.483 406.487 0 224.493 181.99 406.483 406.483 406.483 224.497 0 406.486-181.99 406.486-406.483C920.019 157.97 738.029-24.019 513.533-24.019L513.533-24.019zM228.668 276.135l79.414 206.773 29.472 0 84.629-206.773L391.02 276.135l-24.126 62.623-86.455 0-22.702-62.623L228.668 276.135zM288.337 361.044l70.094 0-21.575 57.263C330.27 435.7 325.388 450 322.188 461.185c-2.638-13.257-6.341-26.418-11.149-39.492L288.337 361.044zM444.052 276.135 444.052 482.908l77.991 0c13.739 0 24.225-0.652 31.46-1.975 10.155-1.693 18.666-4.906 25.522-9.666 6.869-4.747 12.4-11.406 16.583-19.955 4.181-8.548 6.28-17.969 6.28-28.208 0-17.575-5.605-32.467-16.792-44.646-11.186-12.178-31.409-18.262-60.649-18.262l-53.034 0 0-84.062L444.052 276.134zM471.415 384.604l53.451 0c17.688 0 30.232 3.288 37.665 9.862 7.432 6.587 11.149 15.845 11.149 27.792 0 8.658-2.194 16.054-6.561 22.212-4.38 6.169-10.131 10.229-17.281 12.203-4.611 1.226-13.124 1.838-25.537 1.838l-52.885 0 0-73.908L471.415 384.603zM636.721 276.135 636.721 482.908l78.004 0c13.725 0 24.21-0.652 31.446-1.975 10.155-1.693 18.667-4.906 25.536-9.666 6.854-4.747 12.387-11.406 16.57-19.955 4.182-8.548 6.267-17.969 6.267-28.208 0-17.575-5.592-32.467-16.777-44.646-11.186-12.178-31.413-18.262-60.65-18.262l-53.034 0 0-84.062L636.721 276.134zM664.083 384.604l53.461 0c17.674 0 30.222 3.288 37.652 9.862 7.435 6.587 11.137 15.845 11.137 27.792 0 8.658-2.184 16.054-6.55 22.212-4.377 6.169-10.128 10.229-17.278 12.203-4.613 1.226-13.112 1.838-25.523 1.838l-52.898 0L664.084 384.604z"  horiz-adv-x="1024" />

    
    <glyph glyph-name="pause" unicode="&#58903;" d="M417.04067755 18.21109475000003c0-18.15252423-14.85174784-33.00427207-33.00427208-33.00427206L254.42242333-14.793177310000033c-18.15252423 0-33.00427207 14.85174784-33.00427208 33.00427206l0 727.5214063c0 18.15252423 14.85174784 33.00427207 33.00427208 33.00427207l129.61398214 0c18.15252423 0 33.00427207-14.85174784 33.00427208-33.00427207L417.04067755 18.21109475000003zM794.31069582 18.21109475000003c0-18.15252423-14.85174784-33.00427207-33.00427207-33.00427206l-129.61398215 0c-18.15252423 0-33.00427207 14.85174784-33.00427207 33.00427206l0 727.5214063c0 18.15252423 14.85174784 33.00427207 33.00427207 33.00427207l129.61398215 0c18.15252423 0 33.00427207-14.85174784 33.00427207-33.00427207L794.31069582 18.21109475000003z"  horiz-adv-x="1024" />

    
    <glyph glyph-name="site" unicode="&#58911;" d="M511.343549 830.928982c-165.401074 0-299.422464-134.020366-299.422464-299.422464 0-165.403121 299.422464-596.543511 299.422464-596.543511s299.423487 431.140391 299.423487 596.543511C810.767036 696.909639 676.74667 830.928982 511.343549 830.928982zM511.343549 387.338025c-91.984994 0-166.625972 74.638931-166.625972 166.625972 0 92.057649 74.639954 166.625972 166.625972 166.625972 92.058672 0 166.625972-74.568323 166.625972-166.625972C677.969521 461.976956 603.402221 387.338025 511.343549 387.338025z"  horiz-adv-x="1024" />

    
    <glyph glyph-name="wenhao" unicode="&#59165;" d="M511.51393 832.105784c-114.5315 0-229.061976-43.508933-316.720432-131.167389-174.676321-174.676321-174.676321-458.764542 0-633.440863 87.658456-87.658456 202.188932-131.167389 316.720432-131.167389s229.062999 43.508933 316.720432 131.167389c174.676321 174.676321 174.676321 458.764542 0 633.440863C740.576929 788.596851 626.045429 832.105784 511.51393 832.105784zM511.51393 787.316695c52.466955 0 103.653755-10.237155 151.641699-29.432333 49.907667-20.475334 94.695732-49.907667 133.086088-88.937588 39.029922-38.390355 68.463278-83.179444 88.937588-133.086088 19.195178-47.987944 29.432333-99.174744 29.432333-151.641699s-10.237155-103.653755-29.432333-151.641699c-20.47431-49.907667-49.907667-94.695732-88.937588-133.086088-38.390355-39.029922-83.179444-68.463278-133.086088-88.937588-47.987944-19.195178-99.174744-29.432333-151.641699-29.432333-52.466955 0-103.653755 10.237155-151.641699 29.432333-49.907667 20.475334-94.695732 49.907667-133.086088 88.937588-39.029922 38.390355-68.463278 83.179444-88.937588 133.086088-19.195178 47.987944-29.432333 99.174744-29.432333 151.641699s10.237155 103.653755 29.432333 151.641699c20.475334 49.907667 49.907667 94.695732 88.937588 133.086088 38.390355 39.029922 83.179444 68.463278 133.086088 88.937588C407.860175 777.07954 459.046974 787.316695 511.51393 787.316695zM511.51393 221.699544c-18.555611 0-34.55091-15.355733-34.55091-34.55091 0-18.555611 15.996322-33.911344 34.55091-33.911344 19.195178 0 34.55091 15.355733 34.55091 33.911344C546.065863 206.342788 530.709107 221.699544 511.51393 221.699544zM512.154519 615.200686c-42.2298 0-76.141144-10.877745-101.734032-33.911344-25.593911-22.394033-41.589211-55.026244-46.707788-97.895611l58.225099-7.0383c4.479011 31.991622 15.355733 55.665811 31.352055 70.381977 15.996322 15.355733 35.831067 22.394033 59.505255 22.394033 24.953322 0 46.068222-8.317433 63.343677-24.953322 16.635889-15.996322 24.953322-35.1915 24.953322-57.585533 0-11.517311-2.559289-23.034623-8.317433-33.271778-5.758144-10.237155-18.555611-23.674189-37.750789-40.949644-19.834744-17.275455-33.271778-30.072923-40.949644-39.029922-9.597589-12.156878-17.275455-24.313755-21.754466-36.470633-6.398734-15.996322-9.597589-35.1915-9.597589-56.945967l0.639566-17.275455 53.746088 0c0.639566 22.394033 1.919722 39.029922 4.479011 48.627511 3.198855 10.237155 7.0383 19.195178 12.796444 26.873044 5.758144 7.677866 17.275455 19.834744 35.831067 35.831067 26.873044 24.313755 45.428655 44.789089 55.026244 61.424978 8.958022 16.635889 14.0766 35.1915 14.0766 55.026244 0 34.55091-13.437034 63.984267-40.310078 88.298022C592.773651 603.043808 556.942585 615.200686 512.154519 615.200686z"  horiz-adv-x="1024" />

    
    <glyph glyph-name="play" unicode="&#58880;" d="M269.2740736 631.94453333L688.8865184 384 269.2740736 136.05546667V631.94453333zM208.59259307 808.77037013a60.6814816 60.6814816 0 0 1-60.6814816-60.6814816v-728.17777706a60.6814816 60.6814816 0 0 1 60.6814816-60.6814816l641.34257706 379.01653333a53.15697813 53.15697813 0 0 1 0 91.5076736L208.59259307 808.77037013z"  horiz-adv-x="1024" />

    
    <glyph glyph-name="podcast" unicode="&#59107;" d="M641.142857 214.857143q0-49.142857-9.714286-112.571429-17.714286-122.857143-31.428571-178.857143-12.571429-51.428571-86.857143-51.428571t-86.857143 51.428571q-13.714286 56-31.428571 178.857143-9.714286 62.857143-9.714286 112.571429 0 96 128 96t128-96z m309.714286 242.285714q0-137.142857-76.571429-248t-200-160q-4.571429-1.714286-8.571428 1.714286t-3.428572 8.571428q4 27.428571 5.714286 37.714286 2.285714 18.285714 3.428571 26.857143 0.571429 5.142857 5.142858 6.857143 90.857143 46.285714 146 133.714286t55.142857 192.571428q0 102.857143-52 188.857143T684.571429 780t-192.571429 42.285714q-70.857143-4-135.428571-34.857143T246 707.142857t-73.142857-115.428571T146.285714 454.285714q0.571429-105.142857 56.571429-192.285714T349.714286 129.714286q4-1.714286 5.142857-6.857143 1.714286-12 3.428571-25.714286 0.571429-5.142857 2.857143-18.571428t3.428572-20.285715q0.571429-5.142857-3.714286-8.571428t-8.857143-1.142857q-84.571429 33.142857-149.142857 96.857142t-99.142857 150.857143T73.714286 478.857143q4 81.714286 37.714285 156.285714t88.285715 129.714286T328.285714 854.857143 484 894.857143q93.714286 5.714286 180.285714-26.571429t149.142857-91.714285 100-143.142858T950.857143 457.142857z m-309.714286 18.285714q0-53.142857-37.428571-90.571428T513.142857 347.428571t-90.571428 37.428572T385.142857 475.428571t37.428572 90.571429T513.142857 603.428571t90.571429-37.428571T641.142857 475.428571z m164.571429-18.285714q0-69.714286-30.571429-130.571428T691.428571 225.142857q-4.571429-3.428571-9.142857-1.142857t-5.714285 8q-3.428571 29.714286-16.571429 52.571429-4 5.714286 1.714286 11.428571 33.142857 30.857143 52 72.571429t18.857143 88.571428q0 63.428571-33.428572 116.571429T609.142857 654.571429 488 675.428571q-76-8.571429-130.857143-64.571428T294.857143 478.857143q-5.714286-52.571429 13.428571-100.571429t56.285715-82.285714q5.714286-5.714286 1.714285-11.428571-13.714286-23.428571-16.571428-53.142858-1.142857-5.142857-5.714286-7.428571t-9.142857 1.142857q-54.285714 42.285714-84.857143 104.571429T220.571429 463.428571q1.714286 74.857143 39.428571 139.428572t101.142857 103.714286T498.857143 749.142857q82.285714 4 153.142857-34.285714t112.285714-107.142857T805.714286 457.142857z"  horiz-adv-x="1024" />

    
    <glyph glyph-name="star" unicode="&#58883;" d="M990.54933333 490.9952L660.00853333 538.85866667 512.68266667 837.9733333300001 364.26773333 538.85866667 34.816 490.9952 274.02133333 257.14133332999995l-56.54186666-328.48L512.704 83.11360000000002 807.88053333-71.33866666999995l-56.53653333 328.48L990.54933333 490.9952z m-477.86666666-333.9232L303.37706667 46.130133330000035l39.14026666 233.85706667-169.61386666 165.33333333 234.8544 33.712 104.92586666 213.1968 104.92586667-213.1968 233.7632-33.71093333-169.61493333-165.33333333 40.23466666-233.85813334L512.68266667 157.072z"  horiz-adv-x="1024" />

    
    <glyph glyph-name="tag" unicode="&#58947;" d="M644.62264122 514.09584903c43.87924511-43.87924511 115.01660391-43.87924511 158.89584901-1e-8 43.87924511 43.87924511 43.87924511 115.02 0 158.89924512-43.87924511 43.87924511-115.02 43.87924511-158.89584902 0-43.87924511-43.87924511-43.87924511-115.02 1e-8-158.89924512z m36.02037743 36.02377353c-23.98415097 23.98415097-23.98415097 62.86754708 0 86.85169804 23.98415097 23.98415097 62.86754708 23.98415097 86.85169805 0 23.98415097-23.98415097 23.98415097-62.86754708 0-86.85169804-23.98415097-23.98415097-62.86754708-23.98415097-86.85169805 0zM894.0652833 759.13698135l14.63433926-288.48566075-472.9652833-472.96528329c-15.26264122-15.26264122-39.98716963-15.2660373-55.25660303-1e-8L125.70641474 252.46415097c-15.25924512 15.25584902-15.25584902 40.00415097 0 55.25660392L598.43396269 780.45169805l295.62792452-21.3147167z m-328.2113206 60.77547158L89.67924512 343.74113232c-35.15094317-35.14754707-35.15094317-92.14981172-1e-8-127.30415097l254.77132061-254.7713206c35.16452842-35.16452842 92.14641474-35.15773623 127.30415098 0L947.9260373 437.83018828c7.75018828 7.74679219 12.43358526 19.95962256 11.88000001 30.90566074l-16.00641475 315.47547158a25.47169805 25.47169805 0 0 1-23.60377353 24.11320782L597.25886768 831.61245292c-11.09207549 0.79811279-23.53584903-3.82415098-31.41169805-11.69999999z"  horiz-adv-x="1024" />

    
    <glyph glyph-name="branch" unicode="&#59574;" d="M554.666667 298.66666699999996c-143.36 0-190.293333-57.6-205.653334-95.573334C394.666667 183.46666700000003 426.666667 138.24 426.666667 85.33333300000004a128 128 0 0 0-128-128 128 128 0 0 0-128 128c0 55.893333 35.413333 103.253333 85.333333 120.746667V561.9200000000001A127.573333 127.573333 0 0 0 170.666667 682.666667a128 128 0 0 0 128 128 128 128 0 0 0 128-128c0-55.893333-35.413333-103.253333-85.333334-120.746667v-225.706667c37.546667 27.733333 92.16 47.786667 170.666667 47.786667 113.92 0 151.893333 57.173333 164.266667 95.146667A128.256 128.256 0 0 0 597.333333 597.333333a128 128 0 0 0 128 128 128 128 0 0 0 128-128c0-57.173333-37.546667-106.666667-89.173333-122.026666C753.066667 414.293333 711.68 298.66666699999996 554.666667 298.66666699999996m-256-170.666667a42.666667 42.666667 0 0 1-42.666667-42.666667 42.666667 42.666667 0 0 1 42.666667-42.666666 42.666667 42.666667 0 0 1 42.666666 42.666666 42.666667 42.666667 0 0 1-42.666666 42.666667M298.666667 725.333333a42.666667 42.666667 0 0 1-42.666667-42.666666 42.666667 42.666667 0 0 1 42.666667-42.666667 42.666667 42.666667 0 0 1 42.666666 42.666667 42.666667 42.666667 0 0 1-42.666666 42.666666m426.666666-85.333333a42.666667 42.666667 0 0 1-42.666666-42.666667 42.666667 42.666667 0 0 1 42.666666-42.666666 42.666667 42.666667 0 0 1 42.666667 42.666666 42.666667 42.666667 0 0 1-42.666667 42.666667z"  horiz-adv-x="1024" />

    
    <glyph glyph-name="eye-off" unicode="&#58972;" d="M863.126069 541.448828c-6.285241 8.651034-19.632552 9.780966-29.837241 1.871448-3.531034-2.754207-5.049379-4.378483-8.474483-8.15669l-0.247173-0.388414c-56.637793-69.949793-336.825379-347.524414-628.347586-0.388413-0.105931 0.141241-0.105931 0.282483-0.247172 0.388413-0.353103 0.635586-0.847448 1.129931-1.271173 1.659587-7.909517 10.169379-21.46869 12.817655-30.190344 6.038069-8.403862-6.673655-9.145379-19.879724-1.871449-29.978483v-0.105931c0.247172-0.247172 0.247172-0.388414 0.459035-0.635586v-0.141242a796.742621 796.742621 0 0 1 100.069517-95.655724l-78.000552-63.699862a17.337379 17.337379 0 0 1 21.857104-26.941793l83.226482 67.831172c0.635586 0.529655 1.094621 1.024 1.624276 1.518345 40.783448-28.354207 79.942621-47.457103 117.477518-59.286069l-23.693242-86.369103a17.549241 17.549241 0 0 1 12.21738-21.398069 17.513931 17.513931 0 0 1 21.398068 12.217379l23.799173 86.828138a315.603862 315.603862 0 0 1 158.190345 8.15669c0.141241-0.105931 0.141241-0.353103 0.141241-0.494345l44.844138-104.483311a17.37269 17.37269 0 0 1 31.955862 13.629794l-44.208552 103.070896c40.712828 16.772414 77.188414 39.936 109.285518 64.229517a20.833103 20.833103 0 0 1 2.648275-3.778207l59.674483-62.817103a17.408 17.408 0 0 1 24.50538-0.635586 17.44331 17.44331 0 0 1 0.635586 24.540689l-59.639173 62.817104-1.129931 1.129931c37.888 31.70869 67.937103 62.923034 89.476414 83.085241a18.820414 18.820414 0 0 1 2.507035 3.142621 15.183448 15.183448 0 0 1 1.165241 1.765517c4.201931 7.344552 4.413793 15.536552 0 21.43338z"  horiz-adv-x="1024" />

    
    <glyph glyph-name="menu" unicode="&#58983;" d="M853.733517 117.230345H170.266483a18.996966 18.996966 0 1 0 0 37.958621h683.431724a18.996966 18.996966 0 1 0 0.03531-37.958621z m0 256.317793H170.266483a18.996966 18.996966 0 0 0 0 37.958621h683.431724a18.996966 18.996966 0 1 0 0.03531-37.958621z m0 239.227586H170.266483a18.996966 18.996966 0 1 0 0 37.958621h683.431724a18.996966 18.996966 0 1 0 0.03531-37.958621z"  horiz-adv-x="1024" />

    
    <glyph glyph-name="down" unicode="&#58906;" d="M153 601.4l351.5-351.5c1.9-1.9 4.5-3.1 7.5-3.1s5.6 1.2 7.6 3.2L871 601.4c13.9 13.9 36.7 13.9 50.6 0 13.9-13.9 13.9-36.7 0-50.6L537.3 166.6c-13.9-13.9-36.7-13.9-50.6 0-0.1 0.1-0.1 0.1-0.1 0.2L102.4 550.9c-13.9 13.9-13.9 36.7 0 50.6 13.9 13.8 36.7 13.8 50.6-0.1zM501.8 254.8c0 0.2-0.1 0.3-0.1 0.5 0-0.2 0-0.3 0.1-0.5zM502.4 253.1c0 0.1-0.1 0.1-0.1 0.2 0-0.1 0-0.1 0.1-0.2zM501.4 257.4v0z"  horiz-adv-x="1024" />

    
    <glyph glyph-name="up" unicode="&#58908;" d="M871 166.6L519.5 518.1c-1.9 1.9-4.5 3.1-7.5 3.1s-5.6-1.2-7.6-3.2L153 166.6c-13.9-13.9-36.7-13.9-50.6 0-13.9 13.9-13.9 36.7 0 50.6l384.3 384.3c13.9 13.9 36.7 13.9 50.6 0 0.1-0.1 0.1-0.1 0.1-0.2l384.1-384.1c13.9-13.9 13.9-36.7 0-50.6-13.8-13.9-36.6-13.9-50.5 0zM522.2 513.2c0-0.2 0.1-0.3 0.1-0.5 0 0.2 0 0.3-0.1 0.5zM521.6 514.9c0-0.1 0.1-0.1 0.1-0.2 0 0.1 0 0.1-0.1 0.2zM522.6 510.6v0.1-0.1z"  horiz-adv-x="1024" />

    
    <glyph glyph-name="lock" unicode="&#59035;" d="M800-64H224c-52.8 0-96 43.2-96 96V416c0 52.8 43.2 96 96 96h576c52.8 0 96-43.2 96-96v-384c0-52.8-43.2-96-96-96zM224 448c-17.6 0-32-14.4-32-32v-384c0-17.6 14.4-32 32-32h576c17.6 0 32 14.4 32 32V416c0 17.6-14.4 32-32 32H224zM752 480c-17.6 0-32 14.4-32 32v112c0 115.2-92.8 208-208 208S304 739.2 304 624v-112c0-17.6-14.4-32-32-32s-32 14.4-32 32v112c0 150.4 121.6 272 272 272s272-121.6 272-272v-112c0-17.6-14.4-32-32-32z"  horiz-adv-x="1024" />

    
    <glyph glyph-name="worklist" unicode="&#58914;" d="M289.64705908 526.94117636h444.70588184v52.94117637h-444.70588184zM289.64705908 357.52941181999995h444.70588184v52.94117636h-444.70588184zM289.64705908 193.41176455000004h444.70588184v52.94117637h-444.70588184zM342.58823545 802.23529453h-111.1764709c-63.52941182 0-111.17647089-47.64705908-111.17647002-111.17647089v-614.11764727c0-63.52941182 47.64705908-111.17647089 111.17647002-111.1764709h555.88235274c63.52941182 0 111.17647089 47.64705908 111.17647089 111.1764709v614.11764727c0 63.52941182-47.64705908 111.17647089-111.17647089 111.17647089h-105.88235274v-52.94117724h105.88235274c31.76470547 0 58.23529453-26.47058818 58.23529453-58.23529365v-614.11764727c0-31.76470547-26.47058818-58.23529453-58.23529453-58.23529366h-555.88235274c-31.76470547 0-58.23529453 26.47058818-58.23529365 58.23529366v614.11764727c0 31.76470547 26.47058818 58.23529453 58.23529365 58.23529365h111.1764709v52.94117724zM400.82352911 749.29411729h222.35294179v52.94117724h-222.35294179z"  horiz-adv-x="1024" />

    
    <glyph glyph-name="change" unicode="&#58981;" d="M922.048 302.46400000000006H102.016c-3.072 0-6.08 0-7.616-1.664h-3.008c-1.536 0-3.072-1.6-4.544-1.6-1.6-1.792-1.6-1.792-3.072-1.792-1.536-1.6-3.008-1.6-3.008-1.6-3.072-1.664-4.608-3.328-6.144-4.992-1.472-1.664-3.008-4.992-4.544-6.656 0 0 0-1.664-1.472-3.328 0-1.664-1.472-1.664-1.472-3.328s0-3.392-1.472-4.992v-3.328c-1.664-3.264-1.664-9.92-0.128-14.848v-3.328c1.472-1.664 1.472-3.392 1.472-4.992 1.472-1.664 1.472-1.664 1.472-3.328 1.472-1.664 1.472-3.328 1.472-3.328 1.536-3.328 3.072-4.992 4.544-6.656l261.248-285.504a37.12 37.12 0 0 1 53.12 0 42.816 42.816 0 0 1 0 58.112l-197.44 215.744h730.496c21.248 0 37.952 16.64 37.952 39.872s-16.576 41.536-37.824 41.536zM102.016 465.152h827.712c1.472 0 1.472 1.664 3.008 1.664s1.472 0 3.072 1.6c1.472 0 1.472 1.664 3.008 1.664 1.536 1.6 3.072 1.6 3.072 1.6 3.072 1.664 4.544 3.328 6.08 4.992s3.072 4.992 4.544 6.656c0 0 0 1.664 1.472 3.328 0 1.664 1.536 1.664 1.536 3.392 0 1.6 0 3.328 1.472 4.928v3.328a25.728 25.728 0 0 1 0 14.912v3.392c-1.472 1.664-1.472 3.328-1.472 4.928-1.536 1.664-1.536 1.664-1.536 3.328-1.472 1.664-1.472 3.328-1.472 3.328-1.472 3.392-3.072 4.992-4.544 6.656l-261.184 285.504c-7.744 8.32-16.768 11.648-25.92 11.648s-19.776-3.328-27.392-11.648a46.4 46.4 0 0 1 0-58.112l198.912-215.744H102.016c-21.248 0-38.016-18.304-38.016-39.872 0-23.232 16.768-41.472 38.016-41.472z"  horiz-adv-x="1024" />

    
    <glyph glyph-name="right-double" unicode="&#58997;" d="M906.08 383.93600000000004a31.584 31.584 0 0 0-9.28-22.4L534.464-0.7999999999999545a31.808 31.808 0 0 0-45.12 0.128 31.904 31.904 0 0 0-0.128 45.12L828.8 384 489.28 723.552a31.808 31.808 0 0 0 0.128 45.12 31.904 31.904 0 0 0 45.12 0.128l362.304-362.336c6.208-6.176 9.28-14.272 9.312-22.4l-0.032-0.128z m-288 0a31.584 31.584 0 0 0-9.28-22.4L246.464-0.7999999999999545a31.808 31.808 0 0 0-45.12 0.128 31.904 31.904 0 0 0-0.128 45.12L540.8 384 201.28 723.552a31.808 31.808 0 0 0 0.128 45.12 31.904 31.904 0 0 0 45.12 0.128l362.304-362.336c6.208-6.176 9.28-14.272 9.312-22.4l-0.032-0.128z"  horiz-adv-x="1024" />

    
    <glyph glyph-name="video1" unicode="&#58902;" d="M809.95625-42.16458333000003H211.56875A149.7375 149.7375 0 0 0 62 107.40416667V663.04166667A149.7375 149.7375 0 0 0 211.56875 812.66666667h598.3875a149.7375 149.7375 0 0 0 149.56875-149.56875v-555.6375a149.7375 149.7375 0 0 0-149.56875-149.625zM211.56875 769.91666667A106.9875 106.9875 0 0 1 104.75 663.04166667v-555.6375a106.875 106.875 0 0 1 106.81875-106.7625h598.3875a106.93125 106.93125 0 0 1 106.81875 106.7625V663.04166667A106.9875 106.9875 0 0 1 809.95625 769.86041667H211.56875zM916.775 556.22291667h-85.5a21.375 21.375 0 1 0 0 42.75h85.5a21.375 21.375 0 1 0 0-42.75zM916.775 299.77916667h-85.5a21.375 21.375 0 1 0 0 42.69375h85.5c11.8125 0 21.43125-9.5625 21.43125-21.375a21.375 21.375 0 0 0-21.43125-21.31875zM916.775 427.97291667h-85.5a21.375 21.375 0 1 0 0 42.69375h85.5c11.8125 0 21.43125-9.5625 21.43125-21.31875a21.375 21.375 0 0 0-21.43125-21.375zM916.775 171.52916667h-85.5a21.375 21.375 0 0 0 0 42.80625h85.5a21.375 21.375 0 1 0 0-42.80625zM413.73125 192.90416667c-29.41875 0-52.5375 26.26875-52.5375 59.90625V517.69166667c0 33.58125 22.8375 59.85 52.0875 59.85 9.61875 0 19.29375-2.98125 28.125-8.6625l202.66875-132.525c16.48125-10.63125 26.325-29.41875 26.325-50.2875 0-21.54375-10.2375-41.00625-27.45-52.14375l-200.86875-132.35625a52.875 52.875 0 0 0-28.35-8.6625z m-0.45 341.94375c-4.44375 0-9.39375-7.03125-9.39375-17.1v-264.825c0-10.29375 5.0625-17.2125 9.7875-17.2125a9.84375 9.84375 0 0 1 4.95 1.74375l200.86875 132.35625a19.575 19.575 0 0 1 8.1 16.36875c0 6.24375-2.53125 11.64375-6.8625 14.45625L418.0625 533.10416667a9.28125 9.28125 0 0 1-4.78125 1.74375z"  horiz-adv-x="1024" />

    
    <glyph glyph-name="kefu" unicode="&#58917;" d="M83.89189156 345.18486469000004v-103.99135125a77.83783781 77.83783781 0 0 1 155.67567563 0v103.99135125a77.83783781 77.83783781 0 0 1-155.67567563 0z m715.40756813-198.33081094A129.23675719 129.23675719 0 0 0 758.48648656 241.19351343999995v103.99135125A129.72972938 129.72972938 0 0 0 887.30810844 474.81081094C873.99783781 663.3081084400001 716.84324281 812.10810844 524.97297312 812.10810844 333.07675719 812.10810844 175.94810844 663.3081084400001 162.63783781 474.81081094A129.80756719 129.80756719 0 0 0 291.45945969 345.18486469000004v-103.99135125a129.72972938 129.72972938 0 0 0-259.45945969 0v103.99135125a129.72972938 129.72972938 0 0 0 78.0972975 118.93621593C118.14054031 686.32216219 300.8 864 524.97297312 864s406.83243281-177.67783781 414.87567563-399.87891938A129.80756719 129.80756719 0 0 0 1017.94594625 345.18486469000004v-103.99135125a129.72972938 129.72972938 0 0 0-173.24108156-122.12756719 441.34054031 441.34054031 0 0 0-177.05513532-113.64324375A90.75891937 90.75891937 0 0 0 576.605405-83.02702688h-77.37081c-50.33513531 0-91.04432438 40.47567563-91.04432438 90.81081094 0 50.2572975 40.57945969 90.81081094 91.07026969 90.81081094h77.31891938c32.76972937 0 61.44-17.12432438 77.47459406-42.94054125a389.31891937 389.31891937 0 0 1 145.21945969 91.2zM810.37837812 345.18486469000004v-103.99135125a77.83783781 77.83783781 0 0 1 155.67567563 0v103.99135125a77.83783781 77.83783781 0 0 1-155.67567562 0zM499.28648656-31.13513531000001h77.31891844c21.84648656 0 39.17837813 17.33189156 39.17837906 38.91891937 0 21.61297312-17.40972938 38.91891938-39.17837906 38.91891844h-77.31891844c-21.84648656 0-39.17837813-17.33189156-39.17837812-38.91891844 0-21.61297312 17.40972938-38.91891938 39.17837812-38.91891937z"  horiz-adv-x="1051" />

    
    <glyph glyph-name="wode" unicode="&#58927;" d="M512 332.8c-127.9744 0-230.4 115.2512-230.4 256s102.4256 256 230.4 256 230.4-115.2512 230.4-256-102.4256-256-230.4-256z m0 51.2c98.2528 0 179.2 91.0592 179.2 204.8s-80.9472 204.8-179.2 204.8-179.2-91.0592-179.2-204.8 80.9472-204.8 179.2-204.8zM128 102.4a179.2 179.2 0 0 0 179.3792 179.2h409.2416C815.6416 281.6 896 201.2672 896 102.4a179.2 179.2 0 0 0-179.3792-179.2H307.3792C208.3584-76.8 128 3.5328 128 102.4z m51.2 0c0-70.5792 57.4464-128 128.1792-128h409.2416A128 128 0 0 1 844.8 102.4c0 70.5792-57.4464 128-128.1792 128H307.3792A128 128 0 0 1 179.2 102.4z"  horiz-adv-x="1024" />

    
    <glyph glyph-name="home" unicode="&#58926;" d="M362.666667 0.08533299999999144V256.14933299999996c0 36.266667 33.109333 63.850667 72.533333 63.850667h153.6c39.253333 0 72.533333-27.648 72.533333-63.850667v-256.064h59.904c61.269333 0 110.762667 47.957333 110.762667 106.730667V481.834667L557.162667 756.672a63.808 63.808 0 0 1-90.325334 0L192 481.834667v-375.018667c0-58.88 49.386667-106.730667 110.762667-106.730667H362.666667z m42.666666 0h213.333334V256.14933299999996c0 10.709333-12.586667 21.184-29.866667 21.184h-153.6c-17.408 0-29.866667-10.389333-29.866667-21.184v-256.064z m469.333334 439.082667v-332.352c0-82.645333-68.885333-149.397333-153.429334-149.397333H302.762667C218.133333-42.58133299999997 149.333333 24.063999999999965 149.333333 106.81600000000003V439.168l-27.584-27.584a21.333333 21.333333 0 1 0-30.165333 30.165333L436.672 786.837333a106.474667 106.474667 0 0 0 150.656 0l345.088-345.088a21.333333 21.333333 0 0 0-30.165333-30.165333L874.666667 439.168z"  horiz-adv-x="1024" />

    
    <glyph glyph-name="fenlei" unicode="&#58928;" d="M575.68 160a160.32 160.32 0 1 1 160.32 160.32H599.893333c-13.461333 0-24.192-10.752-24.192-24.192V160zM736 362.666667A202.666667 202.666667 0 1 0 533.333333 160V296.106667A66.432 66.432 0 0 0 599.872 362.666667H736zM490.666667 160a202.666667 202.666667 0 1 0-202.666667 202.666667h136.128A66.432 66.432 0 0 0 490.666667 296.128V160z m-202.666667 160.32a160.32 160.32 0 1 1 160.32-160.32V296.106667c0 13.44-10.730667 24.192-24.192 24.192H288zM533.333333 608.021333A202.666667 202.666667 0 1 0 736 405.333333H599.893333A66.432 66.432 0 0 0 533.333333 471.872V608z m202.666667-160.341333a160.32 160.32 0 1 1-160.32 160.32v-136.128c0-13.44 10.730667-24.192 24.192-24.192H736zM448.32 608a160.32 160.32 0 1 1-160.32-160.32h136.128c13.461333 0 24.192 10.752 24.192 24.192V608zM288 405.333333A202.666667 202.666667 0 1 0 490.666667 608v-136.128A66.432 66.432 0 0 0 424.128 405.333333H288z"  horiz-adv-x="1024" />

    
    <glyph glyph-name="user" unicode="&#58943;" d="M277.568 53.290666999999985A403.477333 403.477333 0 0 1 512-21.33333300000004c87.36 0 168.256 27.626667 234.432 74.624C740.885333 177.962667 638.058667 277.33333300000004 512 277.33333300000004c-126.037333 0-228.864-99.370667-234.432-224.042666z m-39.637333 32.064c15.36 99.413333 83.498667 181.376 174.890666 216.384A213.312 213.312 0 0 0 298.666667 490.666667c0 117.824 95.509333 213.333333 213.333333 213.333333s213.333333-95.509333 213.333333-213.333333a213.312 213.312 0 0 0-114.154666-188.928c91.392-34.986667 159.530667-116.970667 174.890666-216.384A404.266667 404.266667 0 0 1 917.333333 384c0 223.850667-181.482667 405.333333-405.333333 405.333333S106.666667 607.8506669999999 106.666667 384a404.266667 404.266667 0 0 1 131.264-298.645333zM512-64C264.576-64 64 136.57600000000002 64 384S264.576 832 512 832s448-200.576 448-448-200.576-448-448-448z m0 384a170.666667 170.666667 0 1 1 0 341.333333 170.666667 170.666667 0 0 1 0-341.333333z"  horiz-adv-x="1024" />

    
    <glyph glyph-name="servicelist" unicode="&#59215;" d="M689.49333333 602.4533333300001h218.45333334c16.384 0 27.30666667 10.92266667 27.30666666 27.30666667s-10.92266667 27.30666667-27.30666666 27.30666667h-218.45333334c-16.384 0-27.30666667-10.92266667-27.30666666-27.30666667s10.92266667-27.30666667 27.30666666-27.30666667z m218.45333334-436.90666666h-163.84c-16.384 0-27.30666667-10.92266667-27.30666667-27.30666667s10.92266667-27.30666667 27.30666667-27.30666667h163.84c16.384 0 27.30666667 10.92266667 27.30666666 27.30666667s-10.92266667 27.30666667-27.30666666 27.30666667z m0 327.68h-218.45333334c-16.384 0-27.30666667-10.92266667-27.30666666-27.30666667s10.92266667-27.30666667 27.30666666-27.30666667h218.45333334c16.384 0 27.30666667 10.92266667 27.30666666 27.30666667s-10.92266667 27.30666667-27.30666666 27.30666667z m0-163.84h-163.84c-16.384 0-27.30666667-10.92266667-27.30666667-27.30666667s10.92266667-27.30666667 27.30666667-27.30666667h163.84c16.384 0 27.30666667 10.92266667 27.30666666 27.30666667s-10.92266667 27.30666667-27.30666666 27.30666667z m-354.98666667 43.69066666c35.49866667 46.42133333 54.61333333 106.496 54.61333333 174.76266667 0 150.18666667-109.22666667 273.06666667-245.76 273.06666667s-245.76-122.88-245.76-273.06666667c0-65.536 21.84533333-125.61066667 54.61333334-174.76266667-62.80533333-21.84533333-109.22666667-81.92-109.22666667-152.91733333v-109.22666667c0-90.112 73.728-163.84 163.84-163.84h273.06666667c90.112 0 163.84 73.728 163.84 163.84v109.22666667c0 70.99733333-46.42133333 131.072-109.22666667 152.91733333zM170.66666667 547.8399999999999c0 120.14933333 84.65066667 218.45333333 191.14666666 218.45333333s191.14666667-98.304 191.14666667-218.45333333-84.65066667-218.45333333-191.14666667-218.45333333-191.14666667 98.304-191.14666666 218.45333333z m436.90666666-423.25333333c0-68.26666667-60.07466667-122.88-133.80266666-122.88h-223.91466667c-73.728 0-133.80266667 54.61333333-133.80266667 122.88v81.92c0 57.344 43.69066667 106.496 103.76533334 120.14933333 40.96-32.768 90.112-51.88266667 141.99466666-51.88266667s101.03466667 19.11466667 141.99466667 51.88266667c60.07466667-13.65333333 103.76533333-60.07466667 103.76533333-120.14933333v-81.92z"  horiz-adv-x="1024" />

    
    <glyph glyph-name="pic" unicode="&#59221;" d="M320 691.2c-56.32 0-102.4-46.08-102.4-102.4s46.08-102.4 102.4-102.4 102.4 46.08 102.4 102.4-46.08 102.4-102.4 102.4z m0-153.6c-28.16 0-51.2 23.04-51.2 51.2s23.04 51.2 51.2 51.2 51.2-23.04 51.2-51.2-23.04-51.2-51.2-51.2z m512 256h-614.4c-56.32 0-102.4-46.08-102.4-102.4v-614.4c0-56.32 46.08-102.4 102.4-102.4h614.4c56.32 0 102.4 46.08 102.4 102.4V691.2c0 56.32-46.08 102.4-102.4 102.4z m-614.4-768c-28.16 0-51.2 23.04-51.2 51.2v23.04l202.24 181.76 258.56-256h-409.6z m665.6 51.2c0-28.16-23.04-51.2-51.2-51.2h-133.12L512 217.60000000000002l217.6 217.6 153.6-153.6v-204.8z m0 279.04l-153.6 156.16-253.44-258.56-104.96 104.96-204.8-186.88V691.2c0 28.16 23.04 51.2 51.2 51.2h614.4c28.16 0 51.2-23.04 51.2-51.2v-335.36z"  horiz-adv-x="1024" />

    
    <glyph glyph-name="xcx" unicode="&#58905;" d="M619.04 601.9200000000001c69.6 0 126.24-52.32 126.24-117.12 0-20.16-5.76-39.84-16.32-57.6-15.84-25.92-41.28-45.12-72-54.24-8.16-2.4-14.4-3.36-20.16-3.36-13.44 0-24 10.56-24 24s10.56 24 24 24c0.96 0 2.88 0 5.28 0.96 20.64 5.76 36.96 17.76 46.08 33.6 6.24 10.08 9.12 21.12 9.12 32.64 0 37.92-35.04 69.12-77.76 69.12-14.88 0-29.28-3.84-42.24-11.04-22.56-12.96-36-34.56-36-58.08v-201.12c0-40.8-22.56-78.24-60-99.36-20.16-11.52-42.72-17.28-65.76-17.28-69.6 0-126.24 52.32-126.24 117.12 0 20.16 5.76 39.84 16.32 57.6 15.84 25.92 41.28 45.12 72 54.24 8.64 2.4 14.4 3.36 20.16 3.36 13.44 0 24-10.56 24-24s-10.56-24-24-24c-0.96 0-2.88 0-5.28-0.96-20.64-6.24-36.96-18.24-46.08-33.6-6.24-10.08-9.12-21.12-9.12-32.64 0-37.92 35.04-69.12 78.24-69.12 14.88 0 29.28 3.84 42.24 11.04 22.56 12.96 36 34.56 36 58.08V484.8c0 40.8 22.56 78.24 60 99.36 19.68 12 42.24 17.76 65.28 17.76z m-488.16-216c0-212.16 171.84-384 384-384s384 171.84 384 384-171.84 384-384 384-384-171.84-384-384z m-48 0c0 238.56 193.44 432 432 432s432-193.44 432-432-193.44-432-432-432-432 193.44-432 432z m0 0"  horiz-adv-x="1024" />

    
    <glyph glyph-name="image-rotate" unicode="&#58889;" d="M901.305 164.24099999999999l18.833 4a29.943 29.943 0 0 0 12.474-58.573l-68.346-14.5a49.952 49.952 0 0 0-59.214 38.454L790.5 201.95299999999997a29.943 29.943 0 0 0 58.582 12.428l3.168-14.881A385.2 385.2 0 0 1 899 384c0 213.734-173.266 387-387 387a385.137 385.137 0 0 1-209.734-61.751c-0.6-0.459-1.194-0.92-1.835-1.339a29.984 29.984 0 0 0-32.867 50.159c0.1 0.064 0.2 0.113 0.3 0.176l-0.1 0.156A444.873 444.873 0 0 0 512 831c246.871 0 447-200.129 447-447a444.861 444.861 0 0 0-57.695-219.759zM576 589v-0.035a29.81 29.81 0 0 0 22.858-10.7L659.186 506H706a50 50 0 0 0 50-50v-228a50 50 0 0 0-50-50H316a50 50 0 0 0-50 50V456a50 50 0 0 0 50 50h50.047l60.41 71.994 0.195-0.164A29.937 29.937 0 0 0 449 588.975V589h127zM403.183 456.914c-0.19-0.227-0.4-0.424-0.6-0.643q-0.617-0.707-1.274-1.373c-0.1-0.1-0.186-0.2-0.283-0.291A29.9 29.9 0 0 0 380 446h-34a20 20 0 0 1-20-20v-168a20 20 0 0 1 20-20h330a20 20 0 0 1 20 20V426a20 20 0 0 1-20 20h-33v0.025c-0.441 0.015-0.876 0.056-1.312 0.089-0.123 0.01-0.246 0.014-0.369 0.025a30.005 30.005 0 0 0-24.247 16.641L561.795 529H463.67zM612 362a100 100 0 1 0-100 100 100 100 0 0 0 100-100z m-140 0a40 40 0 1 1 40 40 40 40 0 0 1-40-40z m40-365a385.155 385.155 0 0 1 211.454 62.854l0.255-0.391c0.291 0.206 0.56 0.431 0.86 0.627a29.985 29.985 0 1 0 28.65-52.426A444.836 444.836 0 0 0 512-63C265.129-63 65 137.12900000000002 65 384a444.867 444.867 0 0 0 57.779 219.91l-18.706-3.973a29.9 29.9 0 0 0-12.439 58.485l68.154 14.478a49.812 49.812 0 0 0 59.047-38.4l14.512-68.234a29.861 29.861 0 1 0-58.418-12.409l-3.129 14.728A385.188 385.188 0 0 1 125 384c0-213.734 173.266-387 387-387z"  horiz-adv-x="1024" />

    
    <glyph glyph-name="rotate-right" unicode="&#59168;" d="M502.29096334 641.2894811L390.63703666 709.25274112c-9.70903666 9.70903666-14.56355555 24.27259221-9.70903666 33.98162887 9.70903666 9.70903666 24.27259221 14.56355555 33.98163001 9.7090378l165.05362887-101.94488889c9.70903666-4.8545189 14.56355555-19.41807445 9.70903779-33.98163001l-101.94488888-165.05363001c-4.8545189-9.70903666-19.41807445-14.56355555-33.98163001-9.70903666-9.70903666 4.8545189-14.56355555 19.41807445-9.70903666 33.98163001l72.81777778 116.50844444c-140.78103666-4.8545189-257.2894811-121.36296334-257.28948224-266.99851889s121.36296334-266.9985189 266.99851889-266.9985189c97.09036999 0 184.47170333 53.39970333 233.0168889 135.9265189 4.8545189 9.70903666 19.41807445 14.56355555 33.98163 9.70903665 9.70903666-4.8545189 14.56355555-19.41807445 9.70903666-33.98162886-58.25422222-97.09036999-160.19911111-160.19911111-271.85303666-160.19911112-174.76266667 0-315.54370333 140.78103666-315.54370446 315.54370333 0 165.05363001 126.2174811 300.98014777 286.41659335 315.54370332z"  horiz-adv-x="1024" />

    
    <glyph glyph-name="rotate-left" unicode="&#59170;" d="M521.70903666 641.2894811c160.19911111-14.56355555 286.41659221-150.49007445 286.41659335-315.54370332 0-174.76266667-140.78103666-315.54370333-315.54370446-315.54370333-111.65392555 0-218.45333333 63.10874112-271.85303666 160.19911112-4.8545189 9.70903666-4.8545189 24.27259221 9.70903666 33.98162886 9.70903666 4.8545189 24.27259221 4.8545189 33.98163-9.70903665 48.54518557-82.52681443 135.9265189-135.9265189 233.0168889-135.9265189 145.63555555 0 266.9985189 121.36296334 266.99851889 266.9985189s-111.65392555 262.144-257.28948224 266.99851889l72.81777778-116.50844444c4.8545189-9.70903666 4.8545189-24.27259221-9.70903666-33.98163001-9.70903666-4.8545189-24.27259221-4.8545189-33.98163001 9.70903666l-101.94488888 165.05363001c-4.8545189 9.70903666-4.8545189 24.27259221 9.70903779 33.98163001L609.09036999 752.94340779c9.70903666 4.8545189 24.27259221 4.8545189 33.98163001-9.7090378 4.8545189-9.70903666 4.8545189-24.27259221-9.70903666-33.98162887l-111.65392668-67.96326002z"  horiz-adv-x="1024" />

    


  </font>
</defs>
</svg>
